<svg width="71" height="71" viewBox="0 0 71 71" fill="none" xmlns="http://www.w3.org/2000/svg">
<path fill-rule="evenodd" clip-rule="evenodd" d="M54.4333 18.9333C54.4333 8.52 45.9133 0 35.5 0C25.0867 0 16.5667 8.52 16.5667 18.9333C16.5667 29.3467 25.0867 37.8667 35.5 37.8667C45.9133 37.8667 54.4333 29.3467 54.4333 18.9333ZM49.7 18.9333C49.7 26.7433 43.31 33.1333 35.5 33.1333C27.69 33.1333 21.3 26.7433 21.3 18.9333C21.3 11.1233 27.69 4.73333 35.5 4.73333C43.31 4.73333 49.7 11.1233 49.7 18.9333ZM36.4467 21.2999C37.1567 21.2999 37.8667 22.0099 37.8667 22.7199C37.8667 23.4299 37.1567 24.1399 36.4467 24.1399H34.5533C33.8433 24.1399 33.37 23.6666 33.1333 23.1932C32.66 22.0099 31.4767 21.2999 30.2933 21.5366C29.11 22.0099 28.4 23.1932 28.6367 24.3766C29.3467 26.5066 31.0033 28.1632 33.1333 28.6366C33.1333 28.8732 33.1333 29.1099 33.37 29.3466C33.6067 29.5832 33.6067 29.8199 33.8433 30.0566L34.08 30.2932C34.3167 30.2932 34.3167 30.5299 34.5533 30.5299C34.79 30.5299 34.79 30.5299 35.0267 30.7666C35.2633 30.7666 35.2633 30.7666 35.5 30.7666C35.7367 30.7666 35.7367 30.7666 35.9733 30.7666C36.21 30.7666 36.21 30.7666 36.4467 30.5299C36.6833 30.5299 36.6833 30.2932 36.92 30.2932L37.1567 30.0566C37.3933 29.8199 37.63 29.5832 37.63 29.3466C37.63 29.1099 37.63 28.8732 37.8667 28.8732C40.7067 28.1632 42.6 25.7966 42.6 22.9566C42.6 19.4066 39.76 16.5666 36.4467 16.5666H34.5533C33.8433 16.5666 33.1333 15.8566 33.1333 15.1466C33.1333 14.4366 33.8433 13.7266 34.5533 13.7266H36.4467C37.1567 13.7266 37.63 14.1999 37.8667 14.6732C38.34 15.8566 39.5233 16.5666 40.9433 16.0932C42.1267 15.6199 42.8367 14.4366 42.3633 13.0166C41.6533 10.8866 39.9967 9.46657 37.8667 8.99324C37.8667 8.51991 37.63 8.04657 37.1567 7.57324C36.21 6.62657 34.5533 6.62657 33.8433 7.57324C33.6067 8.04657 33.37 8.51991 33.1333 8.99324C30.2933 9.70324 28.4 12.0699 28.4 14.9099C28.4 18.4599 31.24 21.2999 34.5533 21.2999H36.4467ZM61.2967 45.44L42.6 53.25C42.6 52.7767 42.6 52.54 42.6 52.0667C42.6 48.0433 39.5233 44.9667 35.5 44.9667H25.0867C24.6133 44.9667 24.14 44.9667 23.9033 44.73C21.0633 43.0733 15.8567 40.2333 11.8333 40.2333C6.39 40.2333 1.18333 45.2033 0.71 45.6767C0.236667 46.15 0 46.6233 0 47.3333V68.6333C0 70.0533 0.946667 71 2.36667 71H36.4467C39.2867 71 42.3633 70.29 44.73 68.6333L69.8167 53.96C70.5267 53.4867 71 52.7767 71 51.83C71 49.7 69.8167 47.57 67.9233 46.15C66.03 44.73 63.4267 44.4933 61.2967 45.44ZM36.4467 66.2667H4.73333V48.28C6.39 47.0967 9.23 44.9667 11.8333 44.9667C13.9633 44.9667 17.5133 46.3867 21.3 48.7533C22.4833 49.4633 23.6667 49.7 24.85 49.7H35.5C36.92 49.7 37.8667 50.6467 37.8667 52.0667C37.8667 53.4867 36.92 54.4333 35.5 54.4333H21.3C19.88 54.4333 18.9333 55.38 18.9333 56.8C18.9333 58.22 19.88 59.1667 21.3 59.1667H40.2333C40.47 59.1667 40.9433 59.1667 41.18 58.93L62.9533 49.9367C63.6633 49.7 64.61 49.7 65.0833 50.1733C65.32 50.41 65.5567 50.6467 65.7933 50.8833L42.3633 64.61C40.47 65.5567 38.5767 66.2667 36.4467 66.2667Z" fill="#3A86FF"/>
</svg>
