<svg width="64" height="65" viewBox="0 0 64 65" fill="none" xmlns="http://www.w3.org/2000/svg">
<path fill-rule="evenodd" clip-rule="evenodd" d="M25.6 37.2667C24.32 37.2667 23.4667 38.1201 23.4667 39.4001V62.8667C23.4667 64.1467 24.32 65.0001 25.6 65.0001H38.4C39.68 65.0001 40.5333 64.1467 40.5333 62.8667V39.4001C40.5333 38.1201 39.68 37.2667 38.4 37.2667H25.6ZM27.7333 60.7334V41.5334H36.2667V60.7334H27.7333ZM2.13333 45.8001C0.853333 45.8001 0 46.6534 0 47.9334V62.8667C0 64.1467 0.853333 65.0001 2.13333 65.0001H14.9333C16.2133 65.0001 17.0667 64.1467 17.0667 62.8667V47.9334C17.0667 46.6534 16.2133 45.8001 14.9333 45.8001H2.13333ZM4.26667 60.7334V50.0667H12.8V60.7334H4.26667ZM49.0667 24.4667C47.7867 24.4667 46.9333 25.3201 46.9333 26.6001V62.8667C46.9333 64.1467 47.7867 65.0001 49.0667 65.0001H61.8667C63.1467 65.0001 64 64.1467 64 62.8667V26.6001C64 25.3201 63.1467 24.4667 61.8667 24.4667H49.0667ZM51.2 60.7334V28.7334H59.7333V60.7334H51.2ZM64 2.49329C64 2.27995 64 2.27995 63.7867 2.06662C63.7867 1.85329 63.5733 1.85329 63.5733 1.63995C63.5733 1.42662 63.36 1.42662 63.36 1.21329C63.36 1.21329 63.36 1.21329 63.1467 0.999954H62.9333C62.72 0.999954 62.72 0.786621 62.5067 0.786621C62.2933 0.786621 62.2933 0.786621 62.08 0.786621H49.0667C47.7867 0.786621 46.9333 1.63995 46.9333 2.91995C46.9333 4.19995 47.7867 5.05329 49.0667 5.05329H57.3867C50.3467 13.16 30.5067 32.1466 2.13333 33C0.853333 33 0 34.0666 0 35.1333C0 36.2 1.06667 37.2666 2.13333 37.2666C31.36 36.4133 51.6267 17.8533 59.7333 9.10662V15.9333C59.7333 17.2133 60.5867 18.0666 61.8667 18.0666C63.1467 18.0666 64 17.2133 64 15.9333V2.91995C64 3.13329 64 3.13329 64 2.91995C64 2.70662 64 2.70662 64 2.49329Z" fill="#3A86FF"/>
</svg>
