<svg width="64" height="66" viewBox="0 0 64 66" fill="none" xmlns="http://www.w3.org/2000/svg">
<path fill-rule="evenodd" clip-rule="evenodd" d="M42.6667 31.2933C46.5067 28.0933 49.0667 23.4 49.0667 17.8533C49.0667 8.46662 41.3867 0.786621 32 0.786621C22.6133 0.786621 14.9333 8.67996 14.9333 18.0666C14.9333 23.4 17.4933 28.3066 21.3333 31.5066C12.5867 32.5733 5.33334 39.1866 3.41334 47.9333L1.92 54.76C1.28 57.32 1.92 59.88 3.62667 62.0133C5.33334 64.1466 7.68 65.2133 10.24 65.2133H53.9733C56.5333 65.2133 59.0933 63.9333 60.5867 62.0133C62.2933 59.88 62.72 57.32 62.2933 54.76L60.5867 47.72C58.6667 38.9733 51.4133 32.5733 42.6667 31.2933ZM32 54.9733L27.7333 49.4266L29.6533 35.3466V35.1333C30.5067 35.1333 31.1467 35.1333 31.7867 35.1333C32.4267 35.1333 33.28 35.1333 33.92 35.1333V35.3466L36.2667 49.4266L32 54.9733ZM32 5.26662C39.04 5.26662 44.8 11.0266 44.8 18.0666C44.8 25.1066 39.04 30.8666 32 30.8666C24.96 30.8666 19.2 25.1066 19.2 18.0666C19.2 11.0266 24.96 5.26662 32 5.26662ZM53.76 60.7333H10.24C8.96 60.7333 7.68 60.0933 6.82667 59.0266C5.97334 57.96 5.76 56.68 5.97334 55.4L7.46667 48.5733C9.17334 41.32 15.36 35.9866 22.8267 35.3466C23.68 35.3466 24.7467 35.1333 25.6 35.1333L23.4667 49.64C23.4667 50.28 23.4667 50.7066 23.8933 51.1333L30.2933 59.6666C30.72 60.3066 31.36 60.52 32 60.52C32.64 60.52 33.28 60.3066 33.7067 59.6666L40.1067 51.1333C40.5333 50.7066 40.5333 50.0666 40.5333 49.64L38.4 35.1333C39.2533 35.1333 40.1067 35.3466 41.1733 35.3466C48.64 35.9866 54.8267 41.32 56.5333 48.5733L58.0267 55.4C58.24 56.68 58.0267 58.1733 57.1733 59.0266C56.32 60.0933 55.04 60.7333 53.76 60.7333ZM26.6667 17C26.6667 15.5066 27.0933 14.0133 28.16 12.9466C29.2267 11.88 30.5067 11.24 32 11.24C33.0667 11.24 33.92 10.3866 33.7067 9.31995C33.7067 8.25328 32.8533 7.39995 31.7867 7.61328C29.2267 7.61328 27.0933 8.67995 25.3867 10.3866C23.68 12.0933 22.8267 14.44 22.8267 17C22.8267 18.0666 23.68 18.9199 24.7467 18.9199C25.8133 18.9199 26.6667 18.0666 26.6667 17ZM59.7333 7.40007V5.26673C59.7333 3.98673 58.88 3.1334 57.6 3.1334C56.32 3.1334 55.4667 3.98673 55.4667 5.26673V7.40007H53.3333C52.0533 7.40007 51.2 8.2534 51.2 9.5334C51.2 10.8134 52.0533 11.6667 53.3333 11.6667H55.4667V13.8001C55.4667 15.0801 56.32 15.9334 57.6 15.9334C58.88 15.9334 59.7333 15.0801 59.7333 13.8001V11.6667H61.8667C63.1467 11.6667 64 10.8134 64 9.5334C64 8.2534 63.1467 7.40007 61.8667 7.40007H59.7333ZM4.26667 33.0001C4.26667 34.2801 5.12 35.1334 6.4 35.1334C7.68 35.1334 8.53333 34.2801 8.53333 33.0001V30.8667H10.6667C11.9467 30.8667 12.8 30.0134 12.8 28.7334C12.8 27.4534 11.9467 26.6001 10.6667 26.6001H8.53333V24.4667C8.53333 23.1867 7.68 22.3334 6.4 22.3334C5.12 22.3334 4.26667 23.1867 4.26667 24.4667V26.6001H2.13333C0.853333 26.6001 0 27.4534 0 28.7334C0 30.0134 0.853333 30.8667 2.13333 30.8667H4.26667V33.0001Z" fill="#3A86FF"/>
</svg>
